<?xml version="1.0" encoding="UTF-8" standalone="no"?>
<svg
   xmlns:dc="http://purl.org/dc/elements/1.1/"
   xmlns:cc="http://creativecommons.org/ns#"
   xmlns:rdf="http://www.w3.org/1999/02/22-rdf-syntax-ns#"
   xmlns:svg="http://www.w3.org/2000/svg"
   xmlns="http://www.w3.org/2000/svg"
   xmlns:sodipodi="http://sodipodi.sourceforge.net/DTD/sodipodi-0.dtd"
   xmlns:inkscape="http://www.inkscape.org/namespaces/inkscape"
   width="100%"
   height="100%"
   viewBox="0 0 84 84"
   version="1.1"
   xml:space="preserve"
   style="fill-rule:evenodd;clip-rule:evenodd;stroke-linejoin:round;stroke-miterlimit:2;"
   id="svg3741"
   sodipodi:docname="XR-Logo-notext-gray.svg"
   inkscape:version="0.92.4 (5da689c313, 2019-01-14)"><metadata
     id="metadata3747"><rdf:RDF><cc:Work
         rdf:about=""><dc:format>image/svg+xml</dc:format><dc:type
           rdf:resource="http://purl.org/dc/dcmitype/StillImage" /></cc:Work></rdf:RDF></metadata><defs
     id="defs3745" /><sodipodi:namedview
     pagecolor="#ffffff"
     bordercolor="#666666"
     borderopacity="1"
     objecttolerance="10"
     gridtolerance="10"
     guidetolerance="10"
     inkscape:pageopacity="0"
     inkscape:pageshadow="2"
     inkscape:window-width="1825"
     inkscape:window-height="1057"
     id="namedview3743"
     showgrid="false"
     inkscape:zoom="10.571429"
     inkscape:cx="29.506606"
     inkscape:cy="41.734237"
     inkscape:window-x="1767"
     inkscape:window-y="-8"
     inkscape:window-maximized="1"
     inkscape:current-layer="g3737" /><rect
     id="ArtBoard1"
     x="0.24"
     y="0.24"
     width="250.8"
     height="83.52"
     style="fill:none;" /><clipPath
     id="_clip1"><rect
       x="0.24"
       y="0.24"
       width="250.8"
       height="83.52"
       id="rect3732" /></clipPath><g
     clip-path="url(#_clip1)"
     id="g3739"><g
       id="g3737"><path
         d="M83.769,41.995c0,-23.066 -18.7,-41.767 -41.766,-41.767c-23.066,0 -41.764,18.701 -41.763,41.767c-0.001,23.065 18.697,41.765 41.763,41.765c23.069,0 41.766,-18.7 41.766,-41.765Zm-41.766,35.334c-8.849,0 -16.931,-3.263 -23.131,-8.639l46.266,0c-6.201,5.376 -14.285,8.639 -23.135,8.639Zm0,-30.161l13.1,15.068l-26.197,0l13.097,-15.068Zm0,-10.356l-13.091,-15.06l26.184,0l-13.093,15.06Zm-25.63,-19.126l21.128,24.305l-21.132,24.307c-6.005,-6.334 -9.7,-14.884 -9.7,-24.303c0,-9.42 3.695,-17.975 9.704,-24.309Zm25.63,-11.025c8.85,0 16.934,3.259 23.135,8.635l-4.431,0l0,0.002l-37.405,0l0,-0.002l-4.43,0c6.2,-5.376 14.282,-8.635 23.131,-8.635Zm35.334,35.334c0,9.419 -3.692,17.969 -9.699,24.303l-21.133,-24.307l21.131,-24.305c6.009,6.334 9.701,14.889 9.701,24.309Z"
         style="fill-rule:nonzero;fill:#e6e6e6;fill-opacity:1"
         id="path3735" /><path
         style="opacity:0;fill:#e6e6e6;fill-opacity:1;stroke-width:0.0945946"
         d="M 39.864714,83.654068 C 23.475035,82.873506 8.9379924,72.295035 3.0203874,56.84279 1.7341439,53.484109 0.92591073,50.100433 0.49743776,46.280438 c -0.22619848,-2.016643 -0.22619848,-6.561355 0,-8.577999 C 1.2394451,31.087169 3.2213685,25.358328 6.6972614,19.781562 8.251317,17.288217 10.075205,14.99954 12.319597,12.726461 14.549078,10.468484 16.395902,8.9405594 18.912011,7.2723894 24.954941,3.2659521 31.426098,1.0170832 38.65626,0.41082917 40.671555,0.24184539 45.409743,0.34624711 47.29039,0.60107444 58.229945,2.0833829 67.743109,7.439533 74.601518,15.977925 c 1.075316,1.338717 2.818087,3.897199 3.666971,5.38331 2.769831,4.84905 4.525798,10.268754 5.222212,16.118103 0.234158,1.966743 0.234158,7.057459 0,9.024201 -0.376302,3.160651 -0.952295,5.770162 -1.906329,8.636548 -2.109307,6.337391 -5.533445,11.835788 -10.309071,16.554054 -6.60232,6.523022 -15.071947,10.598214 -24.378007,11.729569 -1.109862,0.134928 -4.586261,0.344192 -5.235283,0.315141 -0.156081,-0.007 -0.964865,-0.04514 -1.797297,-0.08478 z m 5.297297,-6.433195 c 5.931273,-0.489295 12.076028,-2.722735 17.027027,-6.18883 1.182805,-0.828058 2.971257,-2.234909 2.97634,-2.34128 0.0019,-0.03902 -10.428177,-0.07095 -23.177869,-0.07095 -16.54322,0 -23.163217,0.02919 -23.118257,0.101937 0.03465,0.05606 0.482112,0.435829 0.994361,0.843921 7.266014,5.788595 15.976101,8.424234 25.298398,7.655198 z M 26.990705,54.158636 37.545652,42.015022 37.380859,41.79565 C 37.290222,41.674995 32.533633,36.188156 26.81066,29.602674 L 16.405254,17.629069 15.772016,18.296604 c -1.332262,1.404419 -2.97383,3.608322 -4.120986,5.532672 -7.0518176,11.829409 -6.6528195,26.524756 1.029916,37.932433 1.136891,1.688108 3.501803,4.606845 3.692263,4.556932 0.0344,-0.009 4.812275,-5.481017 10.617496,-12.160005 z m 41.4979,11.268613 c 7.049107,-8.039117 10.074496,-18.391404 8.452267,-28.922 -1.044975,-6.783388 -4.01412,-12.987306 -8.759135,-18.301883 L 67.647409,17.6049 67.365458,17.926548 c -0.155074,0.176906 -4.923787,5.661302 -10.597139,12.187548 l -10.315187,11.8659 0.300385,0.359119 c 0.917671,1.097099 20.835576,23.99829 20.876892,24.003815 0.02721,0.0036 0.413402,-0.408417 0.858196,-0.915681 z M 55.075495,62.156183 C 54.898061,61.86112 42.042382,47.146437 41.981855,47.169129 c -0.05209,0.01953 -12.492936,14.296696 -13.03075,14.954145 -0.121401,0.148406 0.72456,0.158705 13.035106,0.158705 10.928334,0 13.152079,-0.02137 13.089284,-0.125796 z m -6.44823,-32.887717 6.539967,-7.520271 -6.58707,-0.02429 c -3.622888,-0.01336 -9.545269,-0.01336 -13.160845,0 l -6.573776,0.02429 6.550127,7.540925 c 3.60257,4.14751 6.581965,7.531631 6.620878,7.520271 0.03891,-0.01136 3.013737,-3.404777 6.610719,-7.540925 z M 65.165378,15.292114 c -0.0019,-0.03902 -0.438182,-0.417867 -0.969595,-0.841882 C 58.749539,10.104665 52.450802,7.515078 45.610472,6.809291 43.760344,6.6183944 40.217673,6.615033 38.445795,6.8024929 32.56769,7.4243804 27.255408,9.3300105 22.412011,12.554157 c -1.102326,0.733796 -2.609057,1.867006 -3.234385,2.432578 l -0.407507,0.368566 23.199325,0.0039 c 12.759628,0.0021 23.197798,-0.02805 23.195934,-0.06707 z"
         id="path4560"
         inkscape:connector-curvature="0" /><path
         style="opacity:0;fill:#e6e6e6;fill-opacity:1;stroke-width:0.0945946"
         d="M 39.864714,83.654068 C 23.475035,82.873506 8.9379924,72.295035 3.0203874,56.84279 1.7341439,53.484109 0.92591073,50.100433 0.49743776,46.280438 c -0.22619848,-2.016643 -0.22619848,-6.561355 0,-8.577999 C 1.2394451,31.087169 3.2213685,25.358328 6.6972614,19.781562 8.251317,17.288217 10.075205,14.99954 12.319597,12.726461 14.549078,10.468484 16.395902,8.9405594 18.912011,7.2723894 24.954941,3.2659521 31.426098,1.0170832 38.65626,0.41082917 40.671555,0.24184539 45.409743,0.34624711 47.29039,0.60107444 58.229945,2.0833829 67.743109,7.439533 74.601518,15.977925 c 1.075316,1.338717 2.818087,3.897199 3.666971,5.38331 2.769831,4.84905 4.525798,10.268754 5.222212,16.118103 0.234158,1.966743 0.234158,7.057459 0,9.024201 -0.376302,3.160651 -0.952295,5.770162 -1.906329,8.636548 -2.109307,6.337391 -5.533445,11.835788 -10.309071,16.554054 -6.60232,6.523022 -15.071947,10.598214 -24.378007,11.729569 -1.109862,0.134928 -4.586261,0.344192 -5.235283,0.315141 -0.156081,-0.007 -0.964865,-0.04514 -1.797297,-0.08478 z m 5.297297,-6.433195 c 5.931273,-0.489295 12.076028,-2.722735 17.027027,-6.18883 1.182805,-0.828058 2.971257,-2.234909 2.97634,-2.34128 0.0019,-0.03902 -10.428177,-0.07095 -23.177869,-0.07095 -16.54322,0 -23.163217,0.02919 -23.118257,0.101937 0.03465,0.05606 0.482112,0.435829 0.994361,0.843921 7.266014,5.788595 15.976101,8.424234 25.298398,7.655198 z M 26.990705,54.158636 37.545652,42.015022 37.380859,41.79565 C 37.290222,41.674995 32.533633,36.188156 26.81066,29.602674 L 16.405254,17.629069 15.772016,18.296604 c -1.332262,1.404419 -2.97383,3.608322 -4.120986,5.532672 -7.0518176,11.829409 -6.6528195,26.524756 1.029916,37.932433 1.136891,1.688108 3.501803,4.606845 3.692263,4.556932 0.0344,-0.009 4.812275,-5.481017 10.617496,-12.160005 z m 41.4979,11.268613 c 7.049107,-8.039117 10.074496,-18.391404 8.452267,-28.922 -1.044975,-6.783388 -4.01412,-12.987306 -8.759135,-18.301883 L 67.647409,17.6049 67.365458,17.926548 c -0.155074,0.176906 -4.923787,5.661302 -10.597139,12.187548 l -10.315187,11.8659 0.300385,0.359119 c 0.917671,1.097099 20.835576,23.99829 20.876892,24.003815 0.02721,0.0036 0.413402,-0.408417 0.858196,-0.915681 z M 55.075495,62.156183 C 54.898061,61.86112 42.042382,47.146437 41.981855,47.169129 c -0.05209,0.01953 -12.492936,14.296696 -13.03075,14.954145 -0.121401,0.148406 0.72456,0.158705 13.035106,0.158705 10.928334,0 13.152079,-0.02137 13.089284,-0.125796 z m -6.44823,-32.887717 6.539967,-7.520271 -6.58707,-0.02429 c -3.622888,-0.01336 -9.545269,-0.01336 -13.160845,0 l -6.573776,0.02429 6.550127,7.540925 c 3.60257,4.14751 6.581965,7.531631 6.620878,7.520271 0.03891,-0.01136 3.013737,-3.404777 6.610719,-7.540925 z M 65.165378,15.292114 c -0.0019,-0.03902 -0.438182,-0.417867 -0.969595,-0.841882 C 58.749539,10.104665 52.450802,7.515078 45.610472,6.809291 43.760344,6.6183944 40.217673,6.615033 38.445795,6.8024929 32.56769,7.4243804 27.255408,9.3300105 22.412011,12.554157 c -1.102326,0.733796 -2.609057,1.867006 -3.234385,2.432578 l -0.407507,0.368566 23.199325,0.0039 c 12.759628,0.0021 23.197798,-0.02805 23.195934,-0.06707 z"
         id="path4562"
         inkscape:connector-curvature="0" /><path
         style="opacity:0;fill:#e6e6e6;fill-opacity:1;stroke-width:0.0945946"
         d="M 39.864714,83.654068 C 23.475035,82.873506 8.9379924,72.295035 3.0203874,56.84279 1.7341439,53.484109 0.92591073,50.100433 0.49743776,46.280438 c -0.22619848,-2.016643 -0.22619848,-6.561355 0,-8.577999 C 1.2394451,31.087169 3.2213685,25.358328 6.6972614,19.781562 8.251317,17.288217 10.075205,14.99954 12.319597,12.726461 14.549078,10.468484 16.395902,8.9405594 18.912011,7.2723894 24.954941,3.2659521 31.426098,1.0170832 38.65626,0.41082917 40.671555,0.24184539 45.409743,0.34624711 47.29039,0.60107444 58.229945,2.0833829 67.743109,7.439533 74.601518,15.977925 c 1.075316,1.338717 2.818087,3.897199 3.666971,5.38331 2.769831,4.84905 4.525798,10.268754 5.222212,16.118103 0.234158,1.966743 0.234158,7.057459 0,9.024201 -0.376302,3.160651 -0.952295,5.770162 -1.906329,8.636548 -2.109307,6.337391 -5.533445,11.835788 -10.309071,16.554054 -6.60232,6.523022 -15.071947,10.598214 -24.378007,11.729569 -1.109862,0.134928 -4.586261,0.344192 -5.235283,0.315141 -0.156081,-0.007 -0.964865,-0.04514 -1.797297,-0.08478 z m 5.297297,-6.433195 c 5.931273,-0.489295 12.076028,-2.722735 17.027027,-6.18883 1.182805,-0.828058 2.971257,-2.234909 2.97634,-2.34128 0.0019,-0.03902 -10.428177,-0.07095 -23.177869,-0.07095 -16.54322,0 -23.163217,0.02919 -23.118257,0.101937 0.03465,0.05606 0.482112,0.435829 0.994361,0.843921 7.266014,5.788595 15.976101,8.424234 25.298398,7.655198 z M 26.990705,54.158636 37.545652,42.015022 37.380859,41.79565 C 37.290222,41.674995 32.533633,36.188156 26.81066,29.602674 L 16.405254,17.629069 15.772016,18.296604 c -1.332262,1.404419 -2.97383,3.608322 -4.120986,5.532672 -7.0518176,11.829409 -6.6528195,26.524756 1.029916,37.932433 1.136891,1.688108 3.501803,4.606845 3.692263,4.556932 0.0344,-0.009 4.812275,-5.481017 10.617496,-12.160005 z m 41.4979,11.268613 c 7.049107,-8.039117 10.074496,-18.391404 8.452267,-28.922 -1.044975,-6.783388 -4.01412,-12.987306 -8.759135,-18.301883 L 67.647409,17.6049 67.365458,17.926548 c -0.155074,0.176906 -4.923787,5.661302 -10.597139,12.187548 l -10.315187,11.8659 0.300385,0.359119 c 0.917671,1.097099 20.835576,23.99829 20.876892,24.003815 0.02721,0.0036 0.413402,-0.408417 0.858196,-0.915681 z M 55.075495,62.156183 C 54.898061,61.86112 42.042382,47.146437 41.981855,47.169129 c -0.05209,0.01953 -12.492936,14.296696 -13.03075,14.954145 -0.121401,0.148406 0.72456,0.158705 13.035106,0.158705 10.928334,0 13.152079,-0.02137 13.089284,-0.125796 z m -6.44823,-32.887717 6.539967,-7.520271 -6.58707,-0.02429 c -3.622888,-0.01336 -9.545269,-0.01336 -13.160845,0 l -6.573776,0.02429 6.550127,7.540925 c 3.60257,4.14751 6.581965,7.531631 6.620878,7.520271 0.03891,-0.01136 3.013737,-3.404777 6.610719,-7.540925 z M 65.165378,15.292114 c -0.0019,-0.03902 -0.438182,-0.417867 -0.969595,-0.841882 C 58.749539,10.104665 52.450802,7.515078 45.610472,6.809291 43.760344,6.6183944 40.217673,6.615033 38.445795,6.8024929 32.56769,7.4243804 27.255408,9.3300105 22.412011,12.554157 c -1.102326,0.733796 -2.609057,1.867006 -3.234385,2.432578 l -0.407507,0.368566 23.199325,0.0039 c 12.759628,0.0021 23.197798,-0.02805 23.195934,-0.06707 z"
         id="path4564"
         inkscape:connector-curvature="0" /><path
         style="opacity:0;fill:#e6e6e6;fill-opacity:1;stroke-width:0.0945946"
         d="M 39.864714,83.654068 C 23.475035,82.873506 8.9379924,72.295035 3.0203874,56.84279 1.7341439,53.484109 0.92591073,50.100433 0.49743776,46.280438 c -0.22619848,-2.016643 -0.22619848,-6.561355 0,-8.577999 C 1.2394451,31.087169 3.2213685,25.358328 6.6972614,19.781562 8.251317,17.288217 10.075205,14.99954 12.319597,12.726461 14.549078,10.468484 16.395902,8.9405594 18.912011,7.2723894 24.954941,3.2659521 31.426098,1.0170832 38.65626,0.41082917 40.671555,0.24184539 45.409743,0.34624711 47.29039,0.60107444 58.229945,2.0833829 67.743109,7.439533 74.601518,15.977925 c 1.075316,1.338717 2.818087,3.897199 3.666971,5.38331 2.769831,4.84905 4.525798,10.268754 5.222212,16.118103 0.234158,1.966743 0.234158,7.057459 0,9.024201 -0.376302,3.160651 -0.952295,5.770162 -1.906329,8.636548 -2.109307,6.337391 -5.533445,11.835788 -10.309071,16.554054 -6.60232,6.523022 -15.071947,10.598214 -24.378007,11.729569 -1.109862,0.134928 -4.586261,0.344192 -5.235283,0.315141 -0.156081,-0.007 -0.964865,-0.04514 -1.797297,-0.08478 z m 5.297297,-6.433195 c 5.931273,-0.489295 12.076028,-2.722735 17.027027,-6.18883 1.182805,-0.828058 2.971257,-2.234909 2.97634,-2.34128 0.0019,-0.03902 -10.428177,-0.07095 -23.177869,-0.07095 -16.54322,0 -23.163217,0.02919 -23.118257,0.101937 0.03465,0.05606 0.482112,0.435829 0.994361,0.843921 7.266014,5.788595 15.976101,8.424234 25.298398,7.655198 z M 26.990705,54.158636 37.545652,42.015022 37.380859,41.79565 C 37.290222,41.674995 32.533633,36.188156 26.81066,29.602674 L 16.405254,17.629069 15.772016,18.296604 c -1.332262,1.404419 -2.97383,3.608322 -4.120986,5.532672 -7.0518176,11.829409 -6.6528195,26.524756 1.029916,37.932433 1.136891,1.688108 3.501803,4.606845 3.692263,4.556932 0.0344,-0.009 4.812275,-5.481017 10.617496,-12.160005 z m 41.4979,11.268613 c 7.049107,-8.039117 10.074496,-18.391404 8.452267,-28.922 -1.044975,-6.783388 -4.01412,-12.987306 -8.759135,-18.301883 L 67.647409,17.6049 67.365458,17.926548 c -0.155074,0.176906 -4.923787,5.661302 -10.597139,12.187548 l -10.315187,11.8659 0.300385,0.359119 c 0.917671,1.097099 20.835576,23.99829 20.876892,24.003815 0.02721,0.0036 0.413402,-0.408417 0.858196,-0.915681 z M 55.075495,62.156183 C 54.898061,61.86112 42.042382,47.146437 41.981855,47.169129 c -0.05209,0.01953 -12.492936,14.296696 -13.03075,14.954145 -0.121401,0.148406 0.72456,0.158705 13.035106,0.158705 10.928334,0 13.152079,-0.02137 13.089284,-0.125796 z m -6.44823,-32.887717 6.539967,-7.520271 -6.58707,-0.02429 c -3.622888,-0.01336 -9.545269,-0.01336 -13.160845,0 l -6.573776,0.02429 6.550127,7.540925 c 3.60257,4.14751 6.581965,7.531631 6.620878,7.520271 0.03891,-0.01136 3.013737,-3.404777 6.610719,-7.540925 z M 65.165378,15.292114 c -0.0019,-0.03902 -0.438182,-0.417867 -0.969595,-0.841882 C 58.749539,10.104665 52.450802,7.515078 45.610472,6.809291 43.760344,6.6183944 40.217673,6.615033 38.445795,6.8024929 32.56769,7.4243804 27.255408,9.3300105 22.412011,12.554157 c -1.102326,0.733796 -2.609057,1.867006 -3.234385,2.432578 l -0.407507,0.368566 23.199325,0.0039 c 12.759628,0.0021 23.197798,-0.02805 23.195934,-0.06707 z"
         id="path4566"
         inkscape:connector-curvature="0" /><path
         style="opacity:0;fill:#e6e6e6;fill-opacity:1;stroke-width:0.0945946"
         d="M 39.864714,83.654068 C 23.475035,82.873506 8.9379924,72.295035 3.0203874,56.84279 1.7341439,53.484109 0.92591073,50.100433 0.49743776,46.280438 c -0.22619848,-2.016643 -0.22619848,-6.561355 0,-8.577999 C 1.2394451,31.087169 3.2213685,25.358328 6.6972614,19.781562 8.251317,17.288217 10.075205,14.99954 12.319597,12.726461 14.549078,10.468484 16.395902,8.9405594 18.912011,7.2723894 24.954941,3.2659521 31.426098,1.0170832 38.65626,0.41082917 40.671555,0.24184539 45.409743,0.34624711 47.29039,0.60107444 58.229945,2.0833829 67.743109,7.439533 74.601518,15.977925 c 1.075316,1.338717 2.818087,3.897199 3.666971,5.38331 2.769831,4.84905 4.525798,10.268754 5.222212,16.118103 0.234158,1.966743 0.234158,7.057459 0,9.024201 -0.376302,3.160651 -0.952295,5.770162 -1.906329,8.636548 -2.109307,6.337391 -5.533445,11.835788 -10.309071,16.554054 -6.60232,6.523022 -15.071947,10.598214 -24.378007,11.729569 -1.109862,0.134928 -4.586261,0.344192 -5.235283,0.315141 -0.156081,-0.007 -0.964865,-0.04514 -1.797297,-0.08478 z m 5.297297,-6.433195 c 5.931273,-0.489295 12.076028,-2.722735 17.027027,-6.18883 1.182805,-0.828058 2.971257,-2.234909 2.97634,-2.34128 0.0019,-0.03902 -10.428177,-0.07095 -23.177869,-0.07095 -16.54322,0 -23.163217,0.02919 -23.118257,0.101937 0.03465,0.05606 0.482112,0.435829 0.994361,0.843921 7.266014,5.788595 15.976101,8.424234 25.298398,7.655198 z M 26.990705,54.158636 37.545652,42.015022 37.380859,41.79565 C 37.290222,41.674995 32.533633,36.188156 26.81066,29.602674 L 16.405254,17.629069 15.772016,18.296604 c -1.332262,1.404419 -2.97383,3.608322 -4.120986,5.532672 -7.0518176,11.829409 -6.6528195,26.524756 1.029916,37.932433 1.136891,1.688108 3.501803,4.606845 3.692263,4.556932 0.0344,-0.009 4.812275,-5.481017 10.617496,-12.160005 z m 41.4979,11.268613 c 7.049107,-8.039117 10.074496,-18.391404 8.452267,-28.922 -1.044975,-6.783388 -4.01412,-12.987306 -8.759135,-18.301883 L 67.647409,17.6049 67.365458,17.926548 c -0.155074,0.176906 -4.923787,5.661302 -10.597139,12.187548 l -10.315187,11.8659 0.300385,0.359119 c 0.917671,1.097099 20.835576,23.99829 20.876892,24.003815 0.02721,0.0036 0.413402,-0.408417 0.858196,-0.915681 z M 55.075495,62.156183 C 54.898061,61.86112 42.042382,47.146437 41.981855,47.169129 c -0.05209,0.01953 -12.492936,14.296696 -13.03075,14.954145 -0.121401,0.148406 0.72456,0.158705 13.035106,0.158705 10.928334,0 13.152079,-0.02137 13.089284,-0.125796 z m -6.44823,-32.887717 6.539967,-7.520271 -6.58707,-0.02429 c -3.622888,-0.01336 -9.545269,-0.01336 -13.160845,0 l -6.573776,0.02429 6.550127,7.540925 c 3.60257,4.14751 6.581965,7.531631 6.620878,7.520271 0.03891,-0.01136 3.013737,-3.404777 6.610719,-7.540925 z M 65.165378,15.292114 c -0.0019,-0.03902 -0.438182,-0.417867 -0.969595,-0.841882 C 58.749539,10.104665 52.450802,7.515078 45.610472,6.809291 43.760344,6.6183944 40.217673,6.615033 38.445795,6.8024929 32.56769,7.4243804 27.255408,9.3300105 22.412011,12.554157 c -1.102326,0.733796 -2.609057,1.867006 -3.234385,2.432578 l -0.407507,0.368566 23.199325,0.0039 c 12.759628,0.0021 23.197798,-0.02805 23.195934,-0.06707 z"
         id="path4568"
         inkscape:connector-curvature="0" /></g></g><path
     style="stroke-width:0.0945946;opacity:0;fill:#e6e6e6;fill-opacity:1"
     d="M 39.067568,83.621925 C 38.885473,83.601251 38.246959,83.538554 37.648649,83.4826 36.085166,83.33638 33.578243,82.894347 31.858158,82.461591 23.645806,80.395446 16.282283,75.89214 10.646497,69.489189 6.0224331,64.23568 2.7930744,57.882284 1.2877347,51.07689 0.58121936,47.88285 0.33973244,45.596355 0.33507808,42.056757 0.33106143,39.002123 0.41977653,37.832958 0.85678495,35.181246 2.4835395,25.310307 7.616443,16.351622 15.324324,9.9304053 25.266853,1.6475691 38.474541,-1.5393299 51.147526,1.2865822 62.182458,3.7472294 71.829675,10.704667 77.71293,20.445175 c 9.284196,15.371218 7.684979,34.950479 -3.971106,48.618339 -1.750791,2.052969 -4.400488,4.550379 -6.549984,6.173535 -6.008032,4.536866 -12.719506,7.242591 -20.367516,8.211146 -1.118523,0.141651 -6.898996,0.271118 -7.756756,0.17373 z m 7.283783,-6.511075 c 5.666922,-0.752332 10.716298,-2.640568 15.324325,-5.730599 1.139633,-0.76421 3.060382,-2.224241 3.356352,-2.551285 l 0.17297,-0.191128 -23.213985,0.004 -23.213986,0.004 0.425676,0.378371 c 1.963358,1.745171 5.307351,3.86753 8.101506,5.141848 3.768029,1.718469 7.329257,2.64298 11.999845,3.115215 0.976396,0.09872 5.920409,-0.02088 7.047297,-0.170488 z M 37.428257,42.139477 C 37.547641,42.002286 36.473038,40.73273 27.459706,30.36245 21.903409,23.969656 17.147204,18.494426 16.890361,18.19527 16.63352,17.896115 16.398588,17.651351 16.36829,17.651351 c -0.0737,0 -1.538653,1.677815 -2.188719,2.506757 -7.3589584,9.383878 -9.4957266,21.772233 -5.709765,33.103539 1.5111591,4.52287 4.2535,9.189894 7.336631,12.485772 l 0.573461,0.61303 10.457276,-12.033603 C 32.588676,47.708365 37.354664,42.224048 37.428257,42.139477 Z M 69.62833,64.081189 C 76.562029,55.396053 79.001789,44.077288 76.277453,33.233953 75.03878,28.303814 72.559004,23.431142 69.290434,19.504706 67.978337,17.928524 67.6588,17.595089 67.559655,17.698649 67.509846,17.750676 62.737831,23.238026 56.955176,29.89276 46.472414,41.956423 46.441789,41.992863 46.620159,42.190058 c 0.09839,0.108779 4.596981,5.284604 9.996857,11.501834 5.399877,6.21723 10.090011,11.610647 10.42252,11.985372 l 0.604565,0.681319 0.626971,-0.681319 c 0.344834,-0.374725 0.9556,-1.092959 1.357258,-1.596075 z M 55.132883,62.223636 C 55.076053,62.086001 42.066459,47.164865 42.003288,47.164865 c -0.05871,0 -12.781673,14.598275 -13.039057,14.960959 -0.119884,0.16893 0.27286,0.174176 13.038288,0.174176 7.239042,0 13.147707,-0.03436 13.130364,-0.07636 z m -6.519936,-32.93715 6.534691,-7.52027 -6.573819,-0.02429 c -3.6156,-0.01336 -9.529996,-0.01336 -13.1431,0 l -6.569283,0.02429 6.545634,7.539506 c 3.600098,4.146728 6.573882,7.53085 6.608409,7.520271 0.03453,-0.01058 3.003387,-3.403358 6.597468,-7.539507 z M 65.175676,15.306499 c 0,-0.08648 -1.634917,-1.396118 -2.670216,-2.138955 C 53.507053,6.711096 41.670132,4.8973925 31.074324,8.3515313 27.368792,9.5595021 23.850231,11.390247 20.758083,13.719181 c -1.081687,0.814702 -1.922107,1.508065 -1.928386,1.590954 -0.003,0.03902 10.423681,0.07095 23.170303,0.07095 12.746622,0 23.175676,-0.03356 23.175676,-0.07458 z"
     id="path3749"
     inkscape:connector-curvature="0" /><path
     style="opacity:0;fill:#e6e6e6;fill-opacity:1;stroke-width:0.0945946"
     d="M 38.452703,83.568015 C 25.833964,82.499593 14.325649,75.676435 7.2875698,65.090541 3.5782323,59.511368 1.3997375,53.593083 0.54992719,46.786486 0.33542127,45.068391 0.30396747,39.208382 0.50067644,37.610811 1.1312762,32.489397 2.3411439,28.242179 4.3944216,23.941892 8.8867224,14.53343 17.018647,6.9775726 26.77027,3.1511521 30.286308,1.7715011 33.881845,0.90425151 37.885135,0.47022837 39.910931,0.25059841 44.102792,0.2528377 46.162162,0.47464996 55.011033,1.4277514 62.973097,4.9017514 69.564908,10.685713 c 2.154632,1.890574 4.817393,4.84364 6.464513,7.169301 2.338173,3.301397 4.356616,7.301074 5.6257,11.147689 2.183274,6.617541 2.647041,14.154045 1.292257,21 -2.203958,11.136979 -8.719671,20.773161 -18.244675,26.982315 -5.809246,3.786927 -12.324061,6.002936 -19.391892,6.596137 -1.350558,0.113352 -5.457086,0.105483 -6.858108,-0.01314 z m 7.945946,-6.456827 c 5.864801,-0.813967 10.683569,-2.647024 15.560902,-5.919358 1.036444,-0.695378 3.09879,-2.306365 3.153061,-2.462992 0.02013,-0.05811 -8.331114,-0.091 -23.104729,-0.091 -12.724944,0 -23.136261,0.02332 -23.136261,0.05183 0,0.257703 3.400822,2.735342 5.237933,3.816049 4.564578,2.685178 9.318359,4.184057 15.147202,4.775951 0.953527,0.09683 6.101249,-0.02605 7.141892,-0.170485 z M 27.143038,53.992936 c 5.708481,-6.571925 10.358243,-11.99929 10.332803,-12.06081 -0.02544,-0.06152 -4.782982,-5.557848 -10.572316,-12.214061 l -10.526061,-12.102206 -0.56185,0.608963 c -1.550982,1.681035 -3.531709,4.424569 -4.673858,6.473827 -2.3985964,4.303593 -3.8089569,8.78702 -4.3395417,13.795071 -0.1925357,1.817294 -0.1369178,6.332242 0.09866,8.008983 1.0315417,7.34208 4.0130337,13.815585 8.8342167,19.181112 l 0.619632,0.689594 0.204629,-0.215758 c 0.112546,-0.118668 4.875205,-5.592789 10.583686,-12.164715 z m 42.48333,10.067625 c 3.667779,-4.545585 6.24445,-10.242052 7.226936,-15.977206 0.607801,-3.547972 0.658921,-7.760256 0.137426,-11.323896 C 76.002781,30.008302 72.738713,23.117291 68.235153,18.274926 L 67.627422,17.621475 57.083981,29.75449 c -5.798892,6.673159 -10.538347,12.187473 -10.53212,12.254032 0.0062,0.06656 4.75251,5.576982 10.547297,12.245386 l 10.535977,12.124369 0.50375,-0.549273 c 0.277062,-0.302101 0.94643,-1.0979 1.487483,-1.768443 z M 55.083969,62.200556 C 55.023326,62.018626 42.096243,47.174518 42,47.176296 41.906401,47.178025 28.975201,62.033271 28.914415,62.208898 28.894298,62.267018 33.631737,62.3 42,62.3 c 9.129158,0 13.107039,-0.03023 13.083969,-0.09944 z M 48.565738,29.33888 c 3.594587,-4.133346 6.535613,-7.538752 6.535613,-7.567568 0,-0.02882 -5.899155,-0.05239 -13.109234,-0.05239 -7.210079,0 -13.095045,0.0343 -13.077702,0.07622 0.03664,0.08856 13.048391,15.058919 13.088726,15.058919 0.01484,0 2.96801,-3.381829 6.562597,-7.515174 z m 16.56264,-14.045713 c 0,-0.04835 -0.417566,-0.423793 -0.927924,-0.834309 C 55.521195,7.4775183 44.239295,4.9968506 33.391892,7.6846607 c -3.93774,0.975708 -7.800113,2.7069333 -11.20946,5.0243973 -1.315055,0.893893 -3.31081,2.452723 -3.31081,2.585982 0,0.05142 9.30523,0.08604 23.128378,0.08604 14.184251,0 23.128378,-0.034 23.128378,-0.08791 z"
     id="path4556"
     inkscape:connector-curvature="0" /><path
     style="opacity:0;fill:#e6e6e6;fill-opacity:1;stroke-width:0.0472973"
     d="M 10.126866,68.94387 C 10.087846,68.894387 9.8415403,68.591888 9.5795204,68.271647 6.9783156,65.092474 4.7960756,61.376501 3.2212758,57.444667 2.7589923,56.290476 2.1003485,54.339098 1.7222875,53.003583 L 1.4478124,52.033989 1.4355497,42.10583 1.423287,32.17767 1.6340766,31.369343 C 3.615794,23.769935 7.7635316,16.856694 13.613262,11.403036 19.980565,5.466849 28.082242,1.6803103 36.778893,0.57594759 c 1.542352,-0.1958587 1.993033,-0.21425625 5.248604,-0.21425625 2.830399,0 3.278598,0.0102953 4.119093,0.094617 7.649918,0.76746966 14.831989,3.57479426 20.965214,8.19487296 2.502302,1.8849537 5.0764,4.3469877 7.083381,6.7749997 4.579395,5.540091 7.695757,12.282354 8.908379,19.273348 0.451921,2.605396 0.623185,4.622368 0.622229,7.327994 -7.09e-4,2.060283 -0.07616,3.312846 -0.314919,5.229439 -0.833062,6.687275 -3.314131,13.114348 -7.202924,18.658783 -0.553998,0.789861 -1.36274,1.857592 -1.950366,2.57496 l -0.444907,0.543129 -4.516892,-1e-5 -4.516892,-9e-6 0.177365,-0.151938 c 0.09756,-0.08357 0.17737,-0.167905 0.177365,-0.187415 0,-0.01951 -10.40777,-0.03547 -23.128378,-0.03547 -12.720608,0 -23.12838,0.01596 -23.12838,0.03547 -2e-6,0.01951 0.07981,0.103846 0.177364,0.187415 l 0.177367,0.151938 -4.516892,9e-6 c -4.383089,1.5e-5 -4.518993,-0.0026 -4.587838,-0.08995 z M 24.700178,56.752864 c 4.562212,-5.247692 9.311736,-10.710795 10.554496,-12.140228 1.24276,-1.429432 2.25374,-2.615953 2.246621,-2.636714 C 37.494177,41.955162 32.795279,36.539851 27.059299,29.9419 21.323319,23.343948 16.573039,17.878851 16.503121,17.797239 l -0.127124,-0.148385 -0.369498,0.39839 c -1.223859,1.319559 -2.634526,3.125304 -3.599192,4.607201 -1.008194,1.548763 -2.265045,3.897524 -2.9401272,5.494409 -2.0351857,4.814168 -2.9583897,9.790651 -2.7887513,15.03262 0.2460302,7.602528 2.8962425,14.813951 7.6338505,20.772275 0.815229,1.025283 1.970252,2.340375 2.055515,2.340375 0.0206,0 3.770172,-4.293568 8.332384,-9.54126 z m 43.549292,8.914571 c 4.788307,-5.299658 7.893526,-12.014223 8.802017,-19.033014 0.23442,-1.811075 0.259544,-2.258752 0.259691,-4.627459 0,-2.426592 -0.0309,-2.952476 -0.285766,-4.841295 -0.944101,-6.996683 -4.0215,-13.583705 -8.836454,-18.913998 -0.28797,-0.318789 -0.539294,-0.574194 -0.558496,-0.567568 -0.0192,0.0066 -2.708664,3.087557 -5.976581,6.846509 -3.267917,3.758953 -8.009372,9.212741 -10.536571,12.119529 -2.527197,2.906788 -4.600936,5.303165 -4.608309,5.325283 -0.01603,0.0481 21.076301,24.318702 21.134141,24.318702 0.02206,0 0.294908,-0.28201 0.606328,-0.626689 z M 55.097345,62.222451 c -0.02066,-0.06198 -13.058329,-15.077155 -13.0921,-15.077859 -0.03278,-6.84e-4 -13.071635,15.016462 -13.09243,15.078847 -0.01187,0.03561 3.83382,0.05042 13.09243,0.05042 9.416367,0 13.104407,-0.01448 13.0921,-0.0514 z m -6.515567,-32.938462 6.537423,-7.520271 -6.556978,-0.01199 c -3.606338,-0.0066 -9.507711,-0.0066 -13.114162,0 l -6.557184,0.01199 2.898526,3.33446 c 1.59419,1.833953 4.539602,5.223136 6.54536,7.531519 2.005758,2.308383 3.660954,4.191998 3.678212,4.185811 0.01726,-0.0062 2.97322,-3.395371 6.568803,-7.531519 z M 65.108598,15.258112 C 65.057229,15.174994 64.062037,14.36119 63.336326,13.808864 58.625104,10.223223 52.986036,7.8603146 47.108242,7.0088975 44.3585,6.610589 41.224461,6.5432163 38.434299,6.8224341 32.052659,7.4610587 25.951867,9.8447172 20.811458,13.707906 c -0.780979,0.586932 -1.851176,1.455729 -1.909566,1.550206 -0.02131,0.03448 6.998842,0.04952 23.103353,0.04952 16.104512,0 23.124661,-0.01505 23.103353,-0.04952 z"
     id="path4558"
     inkscape:connector-curvature="0" /></svg>