<?xml version="1.0" encoding="UTF-8" standalone="no"?>
<!DOCTYPE svg PUBLIC "-//W3C//DTD SVG 1.1//EN" "http://www.w3.org/Graphics/SVG/1.1/DTD/svg11.dtd">
<svg width="100%" height="100%" viewBox="0 0 1045 348" version="1.1" xmlns="http://www.w3.org/2000/svg" xmlns:xlink="http://www.w3.org/1999/xlink" xml:space="preserve" xmlns:serif="http://www.serif.com/" style="fill-rule:evenodd;clip-rule:evenodd;stroke-linejoin:round;stroke-miterlimit:2;">
    <g id="ArtBoard1" transform="matrix(0.999203,0,0,0.994286,0,0)">
        <rect x="0" y="0" width="1045.83" height="350" style="fill:none;"/>
        <clipPath id="_clip1">
            <rect x="0" y="0" width="1045.83" height="350"/>
        </clipPath>
        <g clip-path="url(#_clip1)">
            <g transform="matrix(4.16999,0,0,4.19061,0,0)">
                <g transform="matrix(0.24,0,0,0.24,0,-0.48)">
                    <path d="M1045.2,308.796L415.683,308.796L415.683,204.979L668.079,177.692L668.079,284.475C668.079,284.475 667.929,287.05 671.929,287.05L687.063,287.05C691.062,287.05 690.913,284.475 690.913,284.475L690.913,281.142C690.913,280.642 691.354,280.412 691.612,280.375C692.804,280.2 692.621,280.671 697.221,284.763C701.254,288.358 704.929,288.175 708.346,288.175C714.571,288.175 728.513,278.092 728.513,244.125C728.513,210.158 713.679,205.975 708.346,205.975C703.004,205.975 698.137,210.9 695.587,213.633C693.788,215.558 691.887,215.883 690.913,215.908L690.913,175.225L801.738,163.237L801.738,284.475C801.738,284.475 801.587,287.05 805.596,287.05L820.721,287.05C824.729,287.05 824.579,284.475 824.579,284.475L824.579,160.775L832.587,159.908L832.587,284.475C832.587,284.475 832.438,287.05 836.446,287.05L851.571,287.05C855.579,287.05 855.429,284.475 855.429,284.475L855.429,157.433L1045.2,136.917L1045.2,308.796ZM656.629,255.771C656.663,255.773 660.482,255.956 661.221,253.475C662.054,250.708 667.529,206.242 631.779,206.242C596.338,206.242 601.971,253.475 601.971,253.475C601.971,253.475 603.529,289.075 632.154,289.075C660.779,289.075 659.296,264.446 659.296,264.446C659.296,264.446 659.446,262.225 656.554,262.225L643.204,262.225C643.178,262.222 640.268,261.938 639.729,264.004C639.288,265.642 638.279,269.125 633.087,269.125C625.796,269.125 625.479,262.084 625.479,255.771L656.629,255.771ZM788.979,255.771C789.013,255.773 792.833,255.956 793.579,253.475C794.404,250.708 799.879,206.242 764.138,206.242C728.687,206.242 734.321,253.475 734.321,253.475C734.321,253.475 735.879,289.075 764.504,289.075C793.129,289.075 791.646,264.446 791.646,264.446C791.646,264.446 791.796,262.225 788.904,262.225L775.554,262.225C775.528,262.222 772.618,261.938 772.087,264.004C771.637,265.642 770.629,269.125 765.438,269.125C758.146,269.125 757.829,262.084 757.829,255.771L788.979,255.771ZM958.013,247.733C957.996,205.2 931.079,206.233 928.288,206.233C928.104,206.233 927.879,206.25 927.654,206.267C927.438,206.25 927.213,206.233 927.021,206.233C924.238,206.233 897.312,205.2 897.304,247.733L897.304,247.758C897.304,284.725 921.421,288.308 925.604,288.308C926.104,288.308 926.937,288.367 927.737,288.367C928.479,288.367 929.154,288.342 929.663,288.342C933.846,288.342 958.013,287.292 958.013,247.758L958.013,247.733ZM985.154,207.95L968.246,207.95C968.246,207.95 965.279,207.708 965.279,209.967L965.279,284.475C965.279,284.475 965.129,287.05 969.138,287.05L984.263,287.05C988.271,287.05 988.121,284.475 988.121,284.475L988.121,235.492C988.129,233.842 989.812,230.192 994.696,230.192C998.671,230.192 998.254,235.533 998.254,235.533L998.254,284.475C998.254,284.475 998.104,287.05 1002.11,287.05L1016,287.05C1020.01,287.05 1019.86,284.475 1019.86,284.475L1019.86,227.375C1019.86,227.375 1021.49,206.017 1005.77,206.017C998.562,206.017 993.162,213.642 991.737,214.704C991.279,215.046 989.887,215.867 988.121,215.929L988.121,209.967C988.121,207.712 985.163,207.949 985.154,207.95ZM885.954,207.95L869.046,207.95C869.046,207.95 866.079,207.708 866.079,209.967L866.079,284.475C866.079,284.475 865.937,287.05 869.938,287.05L885.062,287.05C889.071,287.05 888.921,284.475 888.921,284.475L888.921,209.967C888.921,207.712 885.963,207.949 885.954,207.95ZM575.437,207.937L558.529,207.937C558.529,207.937 555.563,207.708 555.563,209.958L555.563,284.475C555.563,284.475 555.421,287.042 559.421,287.042L574.546,287.042C578.554,287.041 578.404,284.475 578.404,284.475L578.404,241.892C578.413,230.042 594.688,231.225 596.029,231.225C597.579,231.225 597.504,229.217 597.504,229.217L597.504,207.929C597.504,206.75 597.304,206.008 596.029,206.008C589.796,206.008 585.496,210.9 583.121,213.571C581.404,215.496 579.396,215.875 578.404,215.942L578.404,209.958C578.404,207.711 575.446,207.937 575.437,207.937ZM933.862,246.675C933.862,246.267 933.921,240.883 933.471,235.342C933.004,229.583 927.746,229.892 927.746,229.892C927.746,229.892 922.488,229.583 922.021,235.342C921.571,240.883 921.629,246.267 921.629,246.675C921.629,247.075 921.571,253.008 922.021,258.546C922.287,261.883 924.162,263.183 925.696,263.683C926.746,264.142 927.654,264.083 927.654,264.083C927.654,264.083 928.329,264.125 929.171,263.846C930.771,263.508 933.162,262.358 933.471,258.546C933.921,253.008 933.862,247.075 933.862,246.675ZM690.546,246.675C690.546,247.075 690.487,252.458 690.937,258C691.404,263.767 696.663,263.45 696.663,263.45C696.663,263.45 701.921,263.767 702.387,258C702.837,252.458 702.788,247.075 702.779,246.675C702.788,246.267 702.837,240.883 702.387,235.342C701.921,229.583 696.663,229.892 696.663,229.892C696.663,229.892 691.404,229.583 690.937,235.342C690.487,240.883 690.546,246.267 690.546,246.675ZM761.171,239.013C761.161,239.013 757.763,239.131 757.763,237.383C757.763,235.629 758.354,227.075 765.438,227.075C772.738,227.075 772.621,237.417 772.621,237.417C772.621,237.417 773.038,239.012 769.179,239.013L761.171,239.013ZM628.821,239.013C628.811,239.013 625.404,239.131 625.404,237.383C625.404,235.629 625.996,227.075 633.087,227.075C640.387,227.075 640.271,237.417 640.271,237.417C640.271,237.417 640.679,239.012 636.829,239.013L628.821,239.013ZM891.221,186.075C891.221,193.483 885.079,199.492 877.504,199.492C869.929,199.492 863.779,193.483 863.779,186.075C863.779,178.658 869.929,172.65 877.504,172.65C885.079,172.65 891.221,178.658 891.221,186.075ZM869.817,66.138L852.908,66.138C852.908,66.138 849.942,65.896 849.942,68.154L849.942,140.646L827.642,143.054C835.358,138.787 843.663,128.887 843.663,105.712L843.663,105.675C843.65,63.142 816.725,64.179 813.942,64.179C813.75,64.179 813.525,64.192 813.313,64.213C813.083,64.192 812.858,64.179 812.675,64.179C809.883,64.179 782.958,63.142 782.95,105.675L782.95,105.712C782.95,134.738 797.725,143.092 806.133,145.379L364.6,193.113L364.6,21.238L994.117,21.238L994.117,125.054L904.517,134.738L904.517,85.562C904.517,85.562 906.15,64.204 890.425,64.204C883.225,64.204 877.825,71.825 876.4,72.896C875.942,73.238 874.542,74.054 872.783,74.121L872.783,68.154C872.783,65.899 869.825,66.137 869.817,66.138ZM449.183,113.971C449.222,113.973 453.037,114.15 453.783,111.667C454.617,108.892 460.083,64.429 424.342,64.429C388.892,64.429 394.525,111.667 394.525,111.667C394.525,111.667 396.083,147.258 424.708,147.258C453.333,147.258 451.85,122.646 451.85,122.646C451.85,122.646 452,120.421 449.108,120.421L435.758,120.421C435.728,120.418 432.822,120.132 432.292,122.196C431.842,123.825 430.833,127.313 425.65,127.313C418.35,127.313 418.033,120.267 418.033,113.971L449.183,113.971ZM703.45,137.829C703.45,137.829 703.492,139.546 702.742,141.329C700.342,145.958 691.604,146.404 689.367,146.404C685.188,146.404 661.054,148.237 661.038,105.704L661.038,105.675C661.054,63.142 687.967,64.179 690.758,64.179C693,64.179 697.717,65.133 699.95,66.904C700.658,67.471 702.092,68.513 702.742,70.054C703.492,71.837 703.45,73.554 703.45,73.554L703.45,86.529C703.45,88.979 701.6,88.163 701.6,88.163C701.6,88.163 698.483,86.604 696.408,86.604C686.35,86.604 686.333,105.054 686.333,105.675L686.333,105.704C686.333,106.329 686.35,124.775 696.408,124.775C698.483,124.775 701.6,123.217 701.6,123.217C701.6,123.217 703.45,122.404 703.45,124.854L703.45,137.829ZM519.1,145.237C521.324,145.236 519.1,141.629 519.1,141.629C519.1,141.629 499.075,108.108 498.333,106.55C497.592,104.992 498.333,103.362 498.333,103.362C498.333,103.362 516.35,71.179 517.908,68.433C519.465,65.699 515.176,66.137 515.167,66.138L496.7,66.138C493.442,66.138 492.7,68.213 492.7,68.213C492.7,68.213 488.1,78.896 487.358,80.521C486.5,82.388 486.025,82.15 486.025,82.15C486.025,82.15 485.492,82.388 484.692,80.521C483.95,78.896 479.35,68.213 479.35,68.213C479.35,68.213 478.608,66.138 475.342,66.138L456.883,66.138C456.855,66.135 452.58,65.705 454.133,68.433C455.692,71.179 473.708,103.362 473.708,103.362C473.708,103.362 474.458,104.992 473.708,106.55C472.975,108.108 452.95,141.629 452.95,141.629C452.95,141.629 450.725,145.237 452.95,145.237L473.508,145.237C473.538,145.237 475.709,145.222 476.975,142.963C478.15,140.879 484.242,127.688 484.242,127.688C484.242,127.688 484.833,126.504 486.025,126.504C487.208,126.504 487.8,127.688 487.8,127.688C487.8,127.688 493.9,140.879 495.067,142.963C496.35,145.237 498.542,145.237 498.542,145.237L519.1,145.237ZM651.542,145.237C655.55,145.237 655.4,142.671 655.4,142.671L655.4,85.562C655.4,85.562 657.037,64.204 641.308,64.204C634.1,64.204 628.7,71.825 627.275,72.896C626.829,73.238 625.425,74.054 623.658,74.121L623.658,68.154C623.658,65.899 620.7,66.137 620.692,66.138L603.783,66.138C603.783,66.138 600.817,65.896 600.817,68.154L600.817,142.671C600.817,142.671 600.667,145.237 604.675,145.237L619.8,145.237C623.808,145.237 623.658,142.671 623.658,142.671L623.658,93.679C623.667,92.029 625.35,88.379 630.233,88.379C634.208,88.379 633.796,93.721 633.796,93.721L633.796,142.671C633.796,142.671 633.65,145.237 637.65,145.237L651.542,145.237ZM550.833,44.475L533.925,44.475C533.925,44.475 530.967,44.246 530.967,46.496L530.967,66.138L525.775,66.138C525.767,66.138 523.517,66.142 523.517,68.454L523.517,83.104C523.517,83.104 523.4,85.562 525.95,85.562L530.967,85.562L530.967,142.671C530.967,142.671 530.817,145.237 534.817,145.237L549.95,145.237C553.95,145.237 553.8,142.671 553.8,142.671L553.8,85.562L558.817,85.562C561.367,85.562 561.25,83.104 561.25,83.104L561.25,68.454C561.25,66.151 559.018,66.138 558.992,66.138L553.8,66.138L553.8,46.496C553.8,44.249 550.842,44.474 550.833,44.475ZM737.596,44.475L720.692,44.475C720.692,44.475 717.725,44.246 717.725,46.496L717.725,66.138L712.533,66.138C712.525,66.138 710.275,66.142 710.275,68.454L710.275,83.104C710.275,83.104 710.162,85.562 712.708,85.562L717.725,85.562L717.725,142.671C717.725,142.671 717.575,145.237 721.575,145.237L736.708,145.237C740.712,145.237 740.563,142.671 740.563,142.671L740.563,85.562L745.579,85.562C748.125,85.562 748.012,83.104 748.012,83.104L748.012,68.454C748.012,66.151 745.781,66.138 745.754,66.138L740.563,66.138L740.563,46.496C740.563,44.249 737.604,44.474 737.596,44.475ZM588.733,145.237C592.733,145.237 592.583,142.671 592.583,142.671L592.583,68.154C592.583,65.899 589.633,66.137 589.625,66.138L572.717,66.138C572.717,66.138 569.75,65.896 569.75,68.154L569.75,142.671C569.75,142.671 569.6,145.237 573.6,145.237L588.733,145.237ZM772.342,145.237C776.35,145.237 776.2,142.671 776.2,142.671L776.2,68.154C776.2,65.899 773.242,66.137 773.233,66.138L756.325,66.138C756.325,66.138 753.358,65.896 753.358,68.154L753.358,142.671C753.358,142.671 753.221,145.237 757.221,145.237L772.342,145.237ZM872.783,93.679L872.783,138.171L882.921,137.079L882.921,93.721C882.921,93.721 883.333,88.379 879.358,88.379C874.467,88.379 872.783,92.029 872.783,93.679ZM807.275,104.621C807.275,105.021 807.221,110.954 807.667,116.496C807.942,119.825 809.812,121.125 811.342,121.629C812.392,122.083 813.313,122.029 813.313,122.029C813.313,122.029 813.979,122.071 814.825,121.796C816.421,121.454 818.808,120.304 819.117,116.496C819.567,110.954 819.508,105.021 819.508,104.621C819.508,104.221 819.567,98.825 819.117,93.287C818.65,87.529 813.392,87.838 813.392,87.838C813.392,87.838 808.133,87.529 807.667,93.287C807.221,98.825 807.275,104.221 807.275,104.621ZM421.375,97.213C421.365,97.213 417.958,97.327 417.958,95.579C417.958,93.829 418.558,85.271 425.65,85.271C432.942,85.271 432.825,95.604 432.825,95.604C432.825,95.604 433.242,97.212 429.383,97.213L421.375,97.213ZM778.5,44.263C778.5,51.671 772.358,57.675 764.783,57.675C757.213,57.675 751.058,51.671 751.058,44.263C751.058,36.842 757.213,30.838 764.783,30.838C772.358,30.838 778.5,36.842 778.5,44.263ZM594.887,44.263C594.887,51.671 588.742,57.675 581.167,57.675C573.592,57.675 567.45,51.671 567.45,44.263C567.45,36.842 573.592,30.838 581.167,30.838C588.742,30.838 594.887,36.842 594.887,44.263Z"/>
                </g>
                <g transform="matrix(1,0,0,1,0,-0.48)">
                    <path d="M83.529,42.235C83.529,19.169 64.829,0.468 41.763,0.468C18.697,0.468 -0.001,19.169 0,42.235C-0.001,65.3 18.697,84 41.763,84C64.832,84 83.529,65.3 83.529,42.235ZM41.763,77.569C32.914,77.569 24.832,74.306 18.632,68.93L64.898,68.93C58.697,74.306 50.613,77.569 41.763,77.569ZM41.763,47.408L54.863,62.476L28.666,62.476L41.763,47.408ZM41.763,37.052L28.672,21.992L54.856,21.992L41.763,37.052ZM16.133,17.926L37.261,42.231L16.129,66.538C10.124,60.204 6.429,51.654 6.429,42.235C6.429,32.815 10.124,24.26 16.133,17.926ZM41.763,6.901C50.613,6.901 58.697,10.16 64.898,15.536L60.467,15.536L60.467,15.538L23.062,15.538L23.062,15.536L18.632,15.536C24.832,10.16 32.914,6.901 41.763,6.901ZM77.097,42.235C77.097,51.654 73.405,60.204 67.398,66.538L46.265,42.231L67.396,17.926C73.405,24.26 77.097,32.815 77.097,42.235Z" style="fill-rule:nonzero;"/>
                </g>
            </g>
        </g>
    </g>
</svg>
