<?xml version="1.0" encoding="UTF-8" standalone="no"?><!DOCTYPE svg PUBLIC "-//W3C//DTD SVG 1.1//EN" "http://www.w3.org/Graphics/SVG/1.1/DTD/svg11.dtd"><svg width="100%" height="100%" viewBox="0 0 84 84" version="1.1" xmlns="http://www.w3.org/2000/svg" xmlns:xlink="http://www.w3.org/1999/xlink" xml:space="preserve" xmlns:serif="http://www.serif.com/" style="fill-rule:evenodd;clip-rule:evenodd;stroke-linejoin:round;stroke-miterlimit:2;"><rect id="ArtBoard1" x="0.24" y="0.24" width="250.8" height="83.52" style="fill:none;"/><clipPath id="_clip1"><rect x="0.24" y="0.24" width="250.8" height="83.52"/></clipPath><g clip-path="url(#_clip1)"><g><path d="M83.769,41.995c0,-23.066 -18.7,-41.767 -41.766,-41.767c-23.066,0 -41.764,18.701 -41.763,41.767c-0.001,23.065 18.697,41.765 41.763,41.765c23.069,0 41.766,-18.7 41.766,-41.765Zm-41.766,35.334c-8.849,0 -16.931,-3.263 -23.131,-8.639l46.266,0c-6.201,5.376 -14.285,8.639 -23.135,8.639Zm0,-30.161l13.1,15.068l-26.197,0l13.097,-15.068Zm0,-10.356l-13.091,-15.06l26.184,0l-13.093,15.06Zm-25.63,-19.126l21.128,24.305l-21.132,24.307c-6.005,-6.334 -9.7,-14.884 -9.7,-24.303c0,-9.42 3.695,-17.975 9.704,-24.309Zm25.63,-11.025c8.85,0 16.934,3.259 23.135,8.635l-4.431,0l0,0.002l-37.405,0l0,-0.002l-4.43,0c6.2,-5.376 14.282,-8.635 23.131,-8.635Zm35.334,35.334c0,9.419 -3.692,17.969 -9.699,24.303l-21.133,-24.307l21.131,-24.305c6.009,6.334 9.701,14.889 9.701,24.309Z" style="fill-rule:nonzero;"/></g></g></svg>